<svg width="212" height="42" viewBox="0 0 212 42" fill="none" xmlns="http://www.w3.org/2000/svg">
<path opacity="0.5" d="M40.0652 2.25671L30.2601 36.9917C30.2102 37.1494 30.0108 37.1967 29.8945 37.0863L23.3301 30.8583L28.2492 13.4514C28.2991 13.2937 28.1495 13.1518 27.9833 13.1991L9.63617 17.8662L3.10498 11.6697C2.98865 11.5593 3.03851 11.3701 3.20469 11.3228L39.7993 2.00444C39.9655 1.97291 40.115 2.11481 40.0652 2.25671Z" fill="#00B37E"/>
<path opacity="0.5" d="M23.3297 30.858L20.8037 39.8452C20.7538 40.0029 20.5544 40.0502 20.4381 39.9398L0.0634003 20.6251C-0.0529313 20.5147 -0.00307518 20.3255 0.163113 20.2782L9.63583 17.8658L23.3297 30.858Z" fill="#00B37E"/>
<path d="M28.2484 13.4511L23.3292 30.858L9.63533 17.8659L27.9825 13.1988C28.1487 13.1515 28.2982 13.2934 28.2484 13.4511Z" fill="#00B37E"/>
<path d="M67.1594 24.7402C67.1594 24.4154 67.1094 24.1239 67.0095 23.8657C66.9179 23.5992 66.743 23.3577 66.4848 23.1411C66.2266 22.9163 65.8643 22.6956 65.3979 22.479C64.9315 22.2625 64.3277 22.0376 63.5864 21.8044C62.7619 21.5379 61.979 21.2381 61.2378 20.9049C60.5049 20.5718 59.8552 20.1845 59.2889 19.7431C58.7309 19.2934 58.2895 18.7728 57.9647 18.1815C57.6482 17.5902 57.4899 16.9031 57.4899 16.1202C57.4899 15.3623 57.6565 14.6752 57.9896 14.0589C58.3228 13.4342 58.7892 12.9012 59.3888 12.4598C59.9885 12.01 60.6964 11.6644 61.5126 11.4229C62.3372 11.1813 63.2408 11.0606 64.2236 11.0606C65.5645 11.0606 66.7346 11.3021 67.7341 11.7852C68.7335 12.2682 69.508 12.9303 70.0577 13.7715C70.6157 14.6127 70.8947 15.5747 70.8947 16.6574H67.1719C67.1719 16.1243 67.0594 15.6579 66.8346 15.2582C66.618 14.8501 66.2849 14.5294 65.8351 14.2962C65.3937 14.063 64.8357 13.9464 64.1611 13.9464C63.5115 13.9464 62.9701 14.0464 62.537 14.2462C62.104 14.4378 61.7791 14.7002 61.5626 15.0333C61.3461 15.3581 61.2378 15.7246 61.2378 16.1327C61.2378 16.4408 61.3127 16.7198 61.4627 16.9697C61.6209 17.2195 61.8541 17.4527 62.1623 17.6693C62.4704 17.8858 62.8494 18.0899 63.2991 18.2814C63.7488 18.473 64.2694 18.6604 64.8607 18.8436C65.8518 19.1434 66.7221 19.4807 67.4717 19.8555C68.2296 20.2303 68.8626 20.6509 69.3706 21.1173C69.8787 21.5837 70.2618 22.1126 70.52 22.7039C70.7781 23.2952 70.9072 23.9657 70.9072 24.7152C70.9072 25.5065 70.7532 26.2144 70.445 26.839C70.1368 27.4637 69.6913 27.9925 69.1083 28.4256C68.5253 28.8587 67.8298 29.1877 67.022 29.4126C66.2141 29.6374 65.3104 29.7499 64.311 29.7499C63.4115 29.7499 62.5245 29.6333 61.65 29.4001C60.7755 29.1585 59.9802 28.7962 59.2639 28.3132C58.556 27.8301 57.9896 27.2138 57.5649 26.4642C57.1401 25.7147 56.9278 24.8277 56.9278 23.8033H60.6881C60.6881 24.3696 60.7755 24.8485 60.9504 25.2399C61.1253 25.6314 61.371 25.9479 61.6875 26.1894C62.0123 26.4309 62.3955 26.6058 62.8369 26.7141C63.2866 26.8224 63.778 26.8765 64.311 26.8765C64.9606 26.8765 65.4937 26.7849 65.9101 26.6017C66.3349 26.4184 66.6472 26.1644 66.8471 25.8396C67.0553 25.5148 67.1594 25.1483 67.1594 24.7402ZM76.8288 18.7811V29.5H73.2184V15.9828H76.604L76.8288 18.7811ZM76.3291 22.2666H75.3297C75.3297 21.3255 75.4421 20.4594 75.667 19.6681C75.9002 18.8686 76.2375 18.1773 76.6789 17.5943C77.1287 17.003 77.6825 16.5449 78.3405 16.2201C78.9984 15.8953 79.7605 15.7329 80.6267 15.7329C81.2263 15.7329 81.776 15.8245 82.2757 16.0077C82.7754 16.1826 83.2044 16.4616 83.5625 16.8448C83.9289 17.2195 84.2121 17.7109 84.412 18.3189C84.6119 18.9186 84.7118 19.639 84.7118 20.4802V29.5H81.1139V20.8799C81.1139 20.2636 81.0306 19.7889 80.864 19.4558C80.6975 19.1226 80.4601 18.8894 80.1519 18.7562C79.8521 18.6229 79.4898 18.5563 79.0651 18.5563C78.5987 18.5563 78.1906 18.6521 77.8408 18.8436C77.4993 19.0352 77.2161 19.3017 76.9912 19.6432C76.7664 19.9763 76.5998 20.3677 76.4915 20.8175C76.3833 21.2672 76.3291 21.7503 76.3291 22.2666ZM84.3745 21.8544L83.0878 22.0168C83.0878 21.134 83.196 20.3136 83.4126 19.5557C83.6374 18.7978 83.9664 18.1315 84.3995 17.5569C84.8409 16.9822 85.3864 16.5366 86.0361 16.2201C86.6857 15.8953 87.4353 15.7329 88.2848 15.7329C88.9344 15.7329 89.5257 15.8287 90.0588 16.0202C90.5918 16.2035 91.0457 16.4991 91.4205 16.9072C91.8036 17.307 92.0951 17.8317 92.295 18.4813C92.5032 19.1309 92.6073 19.9263 92.6073 20.8675V29.5H88.9969V20.8675C88.9969 20.2428 88.9136 19.7681 88.747 19.4433C88.5888 19.1101 88.3556 18.8811 88.0474 18.7562C87.7476 18.6229 87.3895 18.5563 86.973 18.5563C86.5399 18.5563 86.161 18.6437 85.8362 18.8186C85.5114 18.9852 85.2407 19.2184 85.0241 19.5182C84.8076 19.8181 84.6452 20.1679 84.5369 20.5676C84.4286 20.9591 84.3745 21.388 84.3745 21.8544ZM102.689 26.4517V20.4302C102.689 19.9971 102.618 19.6265 102.477 19.3183C102.335 19.0019 102.114 18.7562 101.815 18.5813C101.523 18.4064 101.144 18.3189 100.678 18.3189C100.278 18.3189 99.9323 18.3897 99.6408 18.5313C99.3493 18.6645 99.1244 18.8603 98.9661 19.1185C98.8079 19.3683 98.7288 19.664 98.7288 20.0054H95.1308C95.1308 19.4308 95.2641 18.8853 95.5306 18.3689C95.7971 17.8525 96.1844 17.3986 96.6924 17.0072C97.2005 16.6074 97.8043 16.2951 98.5039 16.0702C99.2118 15.8453 100.003 15.7329 100.878 15.7329C101.927 15.7329 102.86 15.9078 103.676 16.2576C104.492 16.6074 105.133 17.1321 105.6 17.8317C106.075 18.5313 106.312 19.4058 106.312 20.4552V26.2394C106.312 26.9806 106.358 27.5886 106.449 28.0633C106.541 28.5297 106.674 28.9378 106.849 29.2876V29.5H103.214C103.039 29.1335 102.906 28.6755 102.814 28.1258C102.731 27.5678 102.689 27.0098 102.689 26.4517ZM103.164 21.2672L103.189 23.3036H101.177C100.703 23.3036 100.29 23.3577 99.9406 23.466C99.5908 23.5742 99.3035 23.7283 99.0786 23.9282C98.8537 24.1198 98.6871 24.3446 98.5789 24.6028C98.4789 24.861 98.429 25.1442 98.429 25.4523C98.429 25.7605 98.4997 26.0395 98.6413 26.2893C98.7829 26.5309 98.987 26.7224 99.2535 26.864C99.52 26.9973 99.8323 27.0639 100.19 27.0639C100.732 27.0639 101.202 26.9556 101.602 26.7391C102.002 26.5225 102.31 26.256 102.527 25.9395C102.751 25.6231 102.868 25.3232 102.876 25.0401L103.826 26.5642C103.693 26.9057 103.509 27.2596 103.276 27.6261C103.051 27.9925 102.764 28.3382 102.414 28.663C102.064 28.9795 101.644 29.2418 101.152 29.45C100.661 29.6499 100.078 29.7499 99.4034 29.7499C98.5456 29.7499 97.7668 29.5791 97.0672 29.2377C96.376 28.8879 95.8263 28.409 95.4182 27.801C95.0184 27.1847 94.8185 26.4851 94.8185 25.7022C94.8185 24.9943 94.9518 24.3654 95.2183 23.8158C95.4848 23.2661 95.8762 22.8038 96.3926 22.4291C96.9173 22.0459 97.5711 21.7586 98.354 21.5671C99.1369 21.3672 100.045 21.2672 101.077 21.2672H103.164ZM112.683 18.9311V29.5H109.085V15.9828H112.471L112.683 18.9311ZM116.756 15.8953L116.693 19.2309C116.519 19.2059 116.306 19.1851 116.056 19.1684C115.815 19.1434 115.594 19.1309 115.394 19.1309C114.886 19.1309 114.445 19.1976 114.07 19.3308C113.704 19.4558 113.395 19.6432 113.146 19.893C112.904 20.1429 112.721 20.4469 112.596 20.805C112.479 21.1631 112.413 21.5712 112.396 22.0293L111.671 21.8044C111.671 20.9299 111.759 20.1262 111.934 19.3933C112.109 18.6521 112.363 18.0066 112.696 17.4569C113.037 16.9072 113.454 16.4825 113.945 16.1826C114.436 15.8828 114.999 15.7329 115.632 15.7329C115.831 15.7329 116.036 15.7496 116.244 15.7829C116.452 15.8079 116.623 15.8453 116.756 15.8953ZM125.701 15.9828V18.5313H117.83V15.9828H125.701ZM119.779 12.6472H123.377V25.4273C123.377 25.8188 123.427 26.1186 123.527 26.3268C123.635 26.535 123.794 26.6808 124.002 26.7641C124.21 26.839 124.472 26.8765 124.789 26.8765C125.014 26.8765 125.214 26.8682 125.388 26.8515C125.572 26.8265 125.726 26.8015 125.851 26.7766L125.863 29.425C125.555 29.525 125.222 29.6041 124.864 29.6624C124.506 29.7207 124.11 29.7499 123.677 29.7499C122.886 29.7499 122.194 29.6208 121.603 29.3626C121.02 29.0961 120.57 28.6713 120.254 28.0883C119.937 27.5053 119.779 26.7391 119.779 25.7896V12.6472ZM136.057 11.3104H139.231L143.903 24.6653L148.575 11.3104H151.748L145.177 29.5H142.629L136.057 11.3104ZM134.346 11.3104H137.507L138.081 24.328V29.5H134.346V11.3104ZM150.299 11.3104H153.472V29.5H149.725V24.328L150.299 11.3104ZM155.958 22.8788V22.6164C155.958 21.6253 156.1 20.7134 156.383 19.8805C156.666 19.0393 157.079 18.3106 157.62 17.6943C158.161 17.078 158.828 16.5991 159.619 16.2576C160.41 15.9078 161.318 15.7329 162.342 15.7329C163.367 15.7329 164.279 15.9078 165.078 16.2576C165.878 16.5991 166.548 17.078 167.09 17.6943C167.639 18.3106 168.056 19.0393 168.339 19.8805C168.622 20.7134 168.764 21.6253 168.764 22.6164V22.8788C168.764 23.8616 168.622 24.7735 168.339 25.6147C168.056 26.4476 167.639 27.1763 167.09 27.801C166.548 28.4173 165.882 28.8962 165.091 29.2377C164.3 29.5791 163.392 29.7499 162.367 29.7499C161.343 29.7499 160.431 29.5791 159.631 29.2377C158.84 28.8962 158.17 28.4173 157.62 27.801C157.079 27.1763 156.666 26.4476 156.383 25.6147C156.1 24.7735 155.958 23.8616 155.958 22.8788ZM159.556 22.6164V22.8788C159.556 23.4451 159.606 23.974 159.706 24.4654C159.806 24.9568 159.964 25.3899 160.181 25.7646C160.406 26.1311 160.697 26.4184 161.056 26.6266C161.414 26.8349 161.851 26.939 162.367 26.939C162.867 26.939 163.296 26.8349 163.654 26.6266C164.012 26.4184 164.3 26.1311 164.516 25.7646C164.733 25.3899 164.891 24.9568 164.991 24.4654C165.099 23.974 165.153 23.4451 165.153 22.8788V22.6164C165.153 22.0668 165.099 21.5504 164.991 21.0673C164.891 20.576 164.728 20.1429 164.504 19.7681C164.287 19.385 164 19.0851 163.642 18.8686C163.283 18.6521 162.85 18.5438 162.342 18.5438C161.834 18.5438 161.401 18.6521 161.043 18.8686C160.693 19.0851 160.406 19.385 160.181 19.7681C159.964 20.1429 159.806 20.576 159.706 21.0673C159.606 21.5504 159.556 22.0668 159.556 22.6164ZM174.498 18.8686V29.5H170.9V15.9828H174.273L174.498 18.8686ZM173.973 22.2666H172.999C172.999 21.2672 173.128 20.3677 173.386 19.5682C173.644 18.7603 174.006 18.0732 174.473 17.5069C174.939 16.9322 175.493 16.495 176.134 16.1951C176.784 15.887 177.509 15.7329 178.308 15.7329C178.941 15.7329 179.52 15.8245 180.045 16.0077C180.569 16.191 181.019 16.4825 181.394 16.8822C181.777 17.282 182.068 17.8109 182.268 18.4688C182.477 19.1268 182.581 19.9305 182.581 20.8799V29.5H178.958V20.8675C178.958 20.2678 178.874 19.8014 178.708 19.4683C178.541 19.1351 178.296 18.9019 177.971 18.7687C177.654 18.6271 177.263 18.5563 176.797 18.5563C176.313 18.5563 175.893 18.6521 175.535 18.8436C175.185 19.0352 174.893 19.3017 174.66 19.6432C174.435 19.9763 174.265 20.3677 174.148 20.8175C174.031 21.2672 173.973 21.7503 173.973 22.2666ZM191.538 29.7499C190.489 29.7499 189.548 29.5833 188.715 29.2501C187.882 28.9087 187.174 28.4381 186.591 27.8385C186.016 27.2388 185.575 26.5434 185.267 25.7521C184.958 24.9526 184.804 24.1031 184.804 23.2036V22.7039C184.804 21.6795 184.95 20.7425 185.242 19.893C185.533 19.0435 185.95 18.3064 186.491 17.6818C187.041 17.0571 187.707 16.5782 188.49 16.2451C189.273 15.9036 190.156 15.7329 191.138 15.7329C192.096 15.7329 192.946 15.8911 193.687 16.2076C194.428 16.5241 195.049 16.9739 195.548 17.5569C196.056 18.1398 196.439 18.8394 196.698 19.6556C196.956 20.4635 197.085 21.363 197.085 22.3541V23.8532H186.341V21.4546H193.549V21.1798C193.549 20.6801 193.458 20.2345 193.275 19.843C193.1 19.4433 192.833 19.1268 192.475 18.8936C192.117 18.6604 191.659 18.5438 191.101 18.5438C190.626 18.5438 190.218 18.6479 189.877 18.8561C189.535 19.0643 189.256 19.3558 189.039 19.7306C188.831 20.1054 188.673 20.5468 188.565 21.0548C188.465 21.5546 188.415 22.1042 188.415 22.7039V23.2036C188.415 23.745 188.49 24.2447 188.64 24.7028C188.798 25.1608 189.019 25.5564 189.302 25.8896C189.593 26.2227 189.943 26.4809 190.351 26.6641C190.768 26.8474 191.238 26.939 191.763 26.939C192.413 26.939 193.016 26.814 193.574 26.5642C194.141 26.306 194.628 25.9187 195.036 25.4024L196.785 27.3013C196.502 27.7094 196.115 28.1008 195.623 28.4756C195.14 28.8504 194.557 29.1585 193.874 29.4001C193.191 29.6333 192.413 29.7499 191.538 29.7499ZM202.969 27.9759L206.554 15.9828H210.415L204.98 31.5363C204.864 31.8778 204.706 32.2443 204.506 32.6357C204.314 33.0271 204.052 33.3978 203.719 33.7476C203.394 34.1057 202.981 34.3972 202.482 34.6221C201.99 34.8469 201.387 34.9594 200.67 34.9594C200.329 34.9594 200.05 34.9385 199.833 34.8969C199.617 34.8553 199.359 34.797 199.059 34.722V32.086C199.15 32.086 199.246 32.086 199.346 32.086C199.446 32.0943 199.542 32.0985 199.633 32.0985C200.108 32.0985 200.495 32.0444 200.795 31.9361C201.095 31.8278 201.337 31.6613 201.52 31.4364C201.703 31.2198 201.849 30.9367 201.957 30.5869L202.969 27.9759ZM201.47 15.9828L204.406 25.7771L204.918 29.5874L202.469 29.8498L197.61 15.9828H201.47Z" fill="#E1E1E6"/>
</svg>
